<?xml version="1.0" standalone="no"?>
<!DOCTYPE svg PUBLIC "-//W3C//DTD SVG 20010904//EN"
 "http://www.w3.org/TR/2001/REC-SVG-20010904/DTD/svg10.dtd">
<svg version="1.0" xmlns="http://www.w3.org/2000/svg"
 width="356.000000pt" height="356.000000pt" viewBox="0 0 356.000000 356.000000"
 preserveAspectRatio="xMidYMid meet">
<metadata>
Created by potrace 1.14, written by Peter Selinger 2001-2017
</metadata>
<g transform="translate(0.000000,356.000000) scale(0.100000,-0.100000)"
fill="#000000" stroke="none">
<path d="M5 3121 c-3 -2 -5 -609 -5 -1348 l0 -1343 98 0 99 0 0 662 0 663 57
3 57 3 -3 97 -3 97 -48 1 c-26 0 -50 4 -54 7 -5 5 -8 820 -4 947 1 23 5 26 44
27 23 0 49 1 58 2 14 1 17 15 16 91 0 50 -3 91 -6 91 -19 4 -303 4 -306 0z"/>
<path d="M455 3116 c-57 -22 -100 -73 -114 -135 -16 -75 -16 -2354 0 -2418 15
-58 70 -117 124 -132 144 -40 270 20 293 139 8 38 10 427 9 1235 l-2 1180 -22
45 c-33 66 -80 93 -173 97 -49 2 -89 -2 -115 -11z m111 -1332 c1 -761 -3
-1163 -9 -1172 -8 -11 -12 -11 -18 0 -10 15 -12 2298 -3 2323 4 9 12 14 18 12
8 -3 11 -313 12 -1163z"/>
<path d="M800 1777 l0 -1348 97 3 97 3 0 650 c1 610 2 650 18 653 17 3 18 -35
20 -650 l3 -653 97 -3 97 -3 0 653 c0 359 -2 670 -5 691 -4 22 -17 48 -33 64
l-27 27 23 21 c12 11 26 38 31 60 4 22 7 274 7 560 -1 470 -3 523 -18 552 -32
61 -50 66 -238 67 l-169 1 0 -1348z m230 668 c0 -330 -3 -505 -10 -505 -5 0
-13 1 -17 3 -5 1 -8 228 -8 505 0 472 1 502 17 502 17 0 18 -30 18 -505z"/>
<path d="M1262 3120 c-4 -3 -7 -609 -7 -1348 l0 -1342 161 0 161 0 0 95 0 95
-61 0 -61 0 0 568 0 567 55 5 55 5 0 95 0 95 -40 1 c-22 1 -47 2 -55 3 -13 1
-15 62 -15 489 l0 487 58 -1 c55 -1 57 0 58 25 5 99 3 154 -6 159 -12 8 -293
10 -303 2z"/>
<path d="M1705 3115 c-49 -17 -81 -53 -95 -104 -7 -25 -10 -212 -10 -515 1
-579 -6 -544 140 -736 98 -128 90 -71 87 -646 -2 -445 -4 -509 -17 -509 -13 0
-15 64 -15 515 -1 283 -4 520 -8 526 -9 15 -185 15 -190 0 -1 -6 -3 -252 -2
-546 1 -400 4 -544 14 -572 26 -77 105 -113 227 -106 89 6 130 28 164 89 l25
44 -1 565 c-1 500 -3 570 -18 609 -9 24 -56 99 -105 166 -50 67 -93 134 -97
150 -4 16 -7 216 -6 444 0 510 -1 474 15 469 9 -4 13 -110 17 -469 l5 -464 93
0 92 0 0 490 c0 464 -1 492 -20 533 -26 58 -78 82 -180 81 -41 0 -93 -6 -115
-14z"/>
<path d="M2062 3121 c-4 -4 -7 -609 -7 -1346 l0 -1340 98 -3 97 -3 -2 1348 -3
1347 -88 1 c-48 1 -91 -1 -95 -4z"/>
<path d="M2397 3118 c-49 -13 -92 -57 -104 -106 -6 -24 -10 -484 -9 -1258 l1
-1219 22 -41 c23 -42 71 -74 113 -74 35 0 83 28 105 60 11 16 23 30 27 30 3 0
9 -18 13 -40 l7 -40 69 0 69 0 0 780 0 780 -109 0 -110 0 0 -80 c0 -62 3 -82
14 -87 13 -4 15 -89 15 -607 0 -332 -3 -605 -6 -609 -3 -3 -12 -3 -20 0 -12 4
-14 180 -14 1174 0 1032 2 1169 15 1169 13 0 15 -56 15 -445 l0 -446 98 3 97
3 0 470 -1 470 -23 41 c-33 59 -70 77 -166 80 -44 2 -97 -2 -118 -8z"/>
<path d="M2740 1778 l0 -1348 99 0 98 0 1 632 c0 752 -1 678 17 678 13 0 15
-79 15 -655 l0 -655 99 0 98 0 1 1344 c0 996 -3 1346 -12 1349 -6 2 -49 3 -96
2 l-85 0 -3 -588 c-2 -541 -4 -588 -19 -585 -15 3 -16 52 -16 586 0 320 -3
582 -6 583 -3 1 -48 2 -98 3 l-93 1 0 -1347z"/>
<path d="M3194 3121 c-2 -2 -4 -44 -4 -93 0 -63 4 -88 13 -89 23 -3 52 -6 62
-7 7 -2 10 -401 10 -1239 -1 -681 1 -1244 3 -1250 3 -9 32 -13 98 -13 l94 0 0
1254 0 1255 34 -3 c18 -2 38 -1 44 3 6 3 9 45 8 96 l-1 90 -178 0 c-98 0 -180
-2 -183 -4z"/>
</g>
</svg>
